<?xml version="1.0" encoding="UTF-8" standalone="no"?>

<svg
   width="24.017387mm"
   height="23.38723mm"
   viewBox="0 0 24.017387 23.38723"
   version="1.1"
   id="svg5"
   xmlns="http://www.w3.org/2000/svg"
   xmlns:svg="http://www.w3.org/2000/svg">
  <path
     d="m 2.6640919,0.0606335 q -0.1515842,0 -0.1515842,0.1667426 0,0.1591634 0.1477946,0.1591634 H 3.0430524 L 1.9933319,1.9364877 0.9511907,0.3865395 h 0.5608615 q 0.1477946,0 0.1477946,-0.1591634 0,-0.1667426 -0.1515842,-0.1667426 H 0.2349555 q -0.1515842,0 -0.1515842,0.1667426 0,0.1591634 0.1477946,0.1591634 H 0.5419135 L 1.7886933,2.2396561 0.469911,4.1875127 H 0.1477946 Q 0,4.1875127 0,4.3428865 0,4.4982603 0.1515842,4.4982603 h 1.3187823 q 0.1515842,0 0.1515842,-0.1553738 0,-0.1553738 -0.1477946,-0.1553738 H 0.9095051 L 2.0084904,2.565562 3.103686,4.1875127 H 2.5125077 q -0.087161,0 -0.1364257,0.049265 -0.049265,0.045475 -0.049265,0.1061089 0,0.064423 0.049265,0.1098985 0.049265,0.045475 0.1402154,0.045475 H 3.774446 q 0.1553738,0 0.1553738,-0.1591634 0,-0.1515842 -0.1477946,-0.1515842 H 3.5053841 L 2.213129,2.2661833 3.4864361,0.3865395 h 0.2766411 q 0.1477946,0 0.1477946,-0.1591634 0,-0.1667426 -0.1515842,-0.1667426 z"
     style="fill:#aaaaaa"
     id="path96" />
  <path
     d="m 10.06726,4.4982603 q 0.04169,0 0.06821,-0.037896 0.02653,-0.037896 0.02653,-0.09095 0,-0.049265 -0.02653,-0.083371 -0.02274,-0.034106 -0.06442,-0.034106 H 9.4722921 v -1.159619 h 0.7579209 q 0.06821,0 0.10232,-0.041686 0.0379,-0.045475 0.0379,-0.1061089 0,-0.064423 -0.03411,-0.106109 -0.03411,-0.041686 -0.09853,-0.041686 H 9.4722931 V 0.2349553 q 0,-0.1098985 -0.04168,-0.1553738 -0.04169,-0.049265 -0.106109,-0.049265 -0.04548,0 -0.08716,0.015158 -0.0379,0.015158 -0.04927,0.030317 l -1.936488,2.7436736 q -0.0379,0.049265 -0.0379,0.106109 0,0.064423 0.04547,0.1174777 0.04548,0.049265 0.09853,0.049265 h 1.750797 v 1.159619 h -1.091406 q -0.04168,0 -0.06821,0.034106 -0.02274,0.034107 -0.02274,0.083371 0,0.053055 0.02653,0.09095 0.02653,0.037896 0.06821,0.037896 z M 9.1084901,2.7967279 h -1.458997 l 1.458997,-2.1600745 z"
     style="font-family:'Cutive Mono';-inkscape-font-specification:'Cutive Mono';fill:#dddddd"
     id="path98" />
  <path
     d="m 15.526362,2.1903912 q 0.435804,0 0.693497,0.2463243 0.261483,0.2463243 0.261483,0.6745496 0,0.3221163 -0.144005,0.5798094 -0.140216,0.2539035 -0.405488,0.4016981 -0.261483,0.144005 -0.613916,0.144005 -0.246324,0 -0.37896,-0.041686 -0.132636,-0.045475 -0.257693,-0.1288465 -0.08337,-0.053055 -0.144005,-0.075792 -0.06063,-0.026527 -0.151584,-0.026527 -0.06063,0 -0.10232,0.045475 -0.04169,0.041686 -0.04169,0.079582 0,0.1136881 0.155373,0.2235867 0.159164,0.1098985 0.405488,0.181901 0.250114,0.068213 0.504017,0.068213 0.428226,0 0.776869,-0.1819011 0.352434,-0.1856906 0.557072,-0.5115966 0.204639,-0.3259059 0.204639,-0.7351832 0,-0.3524332 -0.144005,-0.6214951 -0.144005,-0.2690619 -0.420646,-0.4206461 -0.276641,-0.1515842 -0.666971,-0.1515842 0.234956,-0.1136881 0.435805,-0.2387451 0.200849,-0.1288465 0.371381,-0.344854 0.170532,-0.2160074 0.170532,-0.4926485 0,-0.269062 -0.132636,-0.4623318 Q 16.325963,0.2046387 16.094797,0.1023194 15.863631,0 15.575621,0 q -0.212217,0 -0.492648,0.072002 -0.276641,0.068213 -0.47749,0.1970595 -0.19706,0.1288465 -0.19706,0.2993787 0,0.049265 0.04169,0.087161 0.04169,0.037896 0.113688,0.037896 0.106109,0 0.159163,-0.030317 0.05684,-0.034106 0.121268,-0.1023193 0.06821,-0.075792 0.136425,-0.1212673 0.072,-0.049265 0.212218,-0.083371 0.140216,-0.034107 0.375171,-0.034107 0.325906,0 0.492649,0.1591634 0.166742,0.1553738 0.166742,0.3827501 0,0.1932698 -0.106109,0.3410643 -0.102319,0.1477946 -0.269062,0.2652724 -0.166742,0.1174777 -0.4737,0.2993787 l -0.253903,0.1553744 q -0.06063,0.034106 -0.09095,0.075792 -0.02653,0.041686 -0.02653,0.079582 0,0.068213 0.0379,0.1061089 0.0379,0.034106 0.106109,0.034106 0.03411,0 0.117477,-0.011369 0.208429,-0.018948 0.257694,-0.018948 z"
     style="font-family:'Cutive Mono';-inkscape-font-specification:'Cutive Mono';fill:#dddddd"
     id="path100" />
  <path
     d="m 21.216628,1.6295297 q 0.06821,0 0.117477,-0.037896 0.04927,-0.041686 0.05306,-0.1136881 l 0.06063,-1.0914061 h 1.947856 l -2.39882,3.7517084 q -0.0076,0.015158 -0.05684,0.09474 -0.04926,0.079582 -0.04926,0.1477945 0,0.1174778 0.197059,0.1174778 h 2.736095 q 0.08716,0 0.140215,-0.053055 0.05684,-0.053054 0.05305,-0.1477946 L 23.97925,3.039262 q 0,-0.09474 -0.04547,-0.1402154 -0.04547,-0.049265 -0.109898,-0.049265 -0.072,0 -0.132637,0.053054 -0.05684,0.053055 -0.06063,0.1402154 v 1.1293033 h -2.171453 l 2.357134,-3.7706564 q 0.0379,-0.060634 0.0379,-0.1326361 0,-0.083371 -0.04926,-0.144005 -0.04927,-0.064423 -0.136426,-0.064423 h -2.387451 q -0.132636,0 -0.19327,0.060634 -0.06063,0.056844 -0.06442,0.1477946 v 1.1747773 q 0,0.087161 0.05684,0.1364258 0.06063,0.049265 0.136426,0.049265 z"
     style="font-family:'Cutive Mono';-inkscape-font-specification:'Cutive Mono';fill:#dddddd"
     id="path102" />
  <path
     d="m 2.6640919,6.3354848 q -0.1515842,0 -0.1515842,0.1667426 0,0.1591634 0.1477946,0.1591634 H 3.0430524 L 1.9933319,8.2113389 0.9511907,6.6613908 h 0.5608615 q 0.1477946,0 0.1477946,-0.1591634 0,-0.1667426 -0.1515842,-0.1667426 H 0.2349555 q -0.1515842,0 -0.1515842,0.1667426 0,0.1591634 0.1477946,0.1591634 H 0.5419135 L 1.7886933,8.5145069 0.469911,10.462364 H 0.1477946 Q 0,10.462364 0,10.617738 q 0,0.155374 0.1515842,0.155374 h 1.3187823 q 0.1515842,0 0.1515842,-0.155374 0,-0.155374 -0.1477946,-0.155374 H 0.9095051 L 2.0084904,8.8404129 3.103686,10.462364 H 2.5125077 q -0.087161,0 -0.1364257,0.04927 -0.049265,0.04547 -0.049265,0.106109 0,0.06442 0.049265,0.109898 0.049265,0.04548 0.1402154,0.04548 H 3.774446 q 0.1553738,0 0.1553738,-0.159164 0,-0.151584 -0.1477946,-0.151584 H 3.5053841 L 2.213129,8.5410349 3.4864361,6.6613908 h 0.2766411 q 0.1477946,0 0.1477946,-0.1591634 0,-0.1667426 -0.1515842,-0.1667426 z"
     style="font-family:'Cutive Mono';-inkscape-font-specification:'Cutive Mono';fill:#dddddd"
     id="path104" />
  <path
     d="m 10.06726,10.773112 q 0.04169,0 0.06821,-0.0379 0.02653,-0.0379 0.02653,-0.09095 0,-0.04927 -0.02653,-0.08337 -0.02274,-0.03411 -0.06442,-0.03411 H 9.4722921 V 9.3671679 h 0.7579209 q 0.06821,0 0.10232,-0.04169 0.0379,-0.04547 0.0379,-0.106109 0,-0.06442 -0.03411,-0.106109 -0.03411,-0.04169 -0.09853,-0.04169 H 9.4722931 V 6.5098066 q 0,-0.1098985 -0.04168,-0.1553737 -0.04169,-0.049265 -0.106109,-0.049265 -0.04548,0 -0.08716,0.015158 -0.0379,0.015158 -0.04927,0.030317 l -1.936488,2.743674 q -0.0379,0.04927 -0.0379,0.106109 0,0.06442 0.04547,0.117478 0.04548,0.04926 0.09853,0.04926 h 1.750797 v 1.1596191 h -1.091406 q -0.04168,0 -0.06821,0.03411 -0.02274,0.03411 -0.02274,0.08337 0,0.05306 0.02653,0.09095 0.02653,0.0379 0.06821,0.0379 z M 9.1084901,9.0715789 h -1.458997 l 1.458997,-2.160074 z"
     style="fill:#aaaaaa"
     id="path106" />
  <path
     d="m 15.526362,8.4652429 q 0.435804,0 0.693497,0.246324 0.261483,0.246324 0.261483,0.674549 0,0.322117 -0.144005,0.57981 -0.140216,0.2539031 -0.405488,0.4016981 -0.261483,0.144005 -0.613916,0.144005 -0.246324,0 -0.37896,-0.04169 -0.132636,-0.04547 -0.257693,-0.128846 -0.08337,-0.05305 -0.144005,-0.07579 -0.06063,-0.02653 -0.151584,-0.02653 -0.06063,0 -0.10232,0.04548 -0.04169,0.04169 -0.04169,0.07958 0,0.113689 0.155373,0.223587 0.159164,0.109899 0.405488,0.181901 0.250114,0.06821 0.504017,0.06821 0.428226,0 0.776869,-0.181901 0.352434,-0.185691 0.557072,-0.511597 0.204639,-0.3259061 0.204639,-0.7351831 0,-0.352433 -0.144005,-0.621495 -0.144005,-0.269062 -0.420646,-0.420646 -0.276641,-0.151584 -0.666971,-0.151584 0.234956,-0.113688 0.435805,-0.238745 0.200849,-0.128847 0.371381,-0.344854 0.170532,-0.216008 0.170532,-0.492649 0,-0.269062 -0.132636,-0.4623317 -0.132636,-0.1970594 -0.363802,-0.2993787 -0.231166,-0.1023193 -0.519176,-0.1023193 -0.212217,0 -0.492648,0.072002 -0.276641,0.068213 -0.47749,0.1970594 -0.19706,0.1288465 -0.19706,0.2993793 0,0.04927 0.04169,0.08716 0.04169,0.0379 0.113688,0.0379 0.106109,0 0.159163,-0.03032 0.05684,-0.03411 0.121268,-0.102319 0.06821,-0.075792 0.136425,-0.1212681 0.072,-0.049265 0.212218,-0.083371 0.140216,-0.034107 0.375171,-0.034107 0.325906,0 0.492649,0.1591634 0.166742,0.1553737 0.166742,0.3827497 0,0.19327 -0.106109,0.341064 -0.102319,0.147795 -0.269062,0.265273 -0.166742,0.117478 -0.4737,0.299379 l -0.253904,0.155373 q -0.06063,0.03411 -0.09095,0.07579 -0.02653,0.04169 -0.02653,0.07958 0,0.06821 0.0379,0.106109 0.0379,0.03411 0.106109,0.03411 0.03411,0 0.117477,-0.01137 0.208429,-0.01895 0.257694,-0.01895 z"
     style="font-family:'Cutive Mono';-inkscape-font-specification:'Cutive Mono';fill:#dddddd"
     id="path108" />
  <path
     d="m 21.216628,7.9043809 q 0.06821,0 0.117477,-0.0379 0.04927,-0.04169 0.05306,-0.113688 l 0.06063,-1.0914061 h 1.947856 l -2.398819,3.7517082 q -0.0076,0.01516 -0.05684,0.09474 -0.04926,0.07958 -0.04926,0.147795 0,0.117478 0.197059,0.117478 h 2.736095 q 0.08716,0 0.140215,-0.05306 0.05684,-0.05305 0.05305,-0.147794 l -0.0379,-1.2581491 q 0,-0.09474 -0.04547,-0.140215 -0.04547,-0.04927 -0.109898,-0.04927 -0.072,0 -0.132637,0.05305 -0.05684,0.05306 -0.06063,0.140216 v 1.1293021 h -2.171444 l 2.357134,-3.7706568 q 0.0379,-0.060634 0.0379,-0.1326361 0,-0.083371 -0.04926,-0.144005 -0.04927,-0.064423 -0.136426,-0.064423 h -2.387451 q -0.132636,0 -0.19327,0.060634 -0.06063,0.056844 -0.06442,0.1477946 v 1.1747782 q 0,0.08716 0.05684,0.136425 0.06063,0.04927 0.136426,0.04927 z"
     style="font-family:'Cutive Mono';-inkscape-font-specification:'Cutive Mono';fill:#dddddd"
     id="path110" />
  <path
     d="m 2.6640919,12.610335 q -0.1515842,0 -0.1515842,0.166743 0,0.159163 0.1477946,0.159163 H 3.0430524 L 1.9933319,14.486189 0.9511907,12.936241 h 0.5608615 q 0.1477946,0 0.1477946,-0.159163 0,-0.166743 -0.1515842,-0.166743 H 0.2349555 q -0.1515842,0 -0.1515842,0.166743 0,0.159163 0.1477946,0.159163 H 0.5419135 L 1.7886933,14.789358 0.469911,16.737215 H 0.1477946 Q 0,16.737215 0,16.892588 q 0,0.155374 0.1515842,0.155374 h 1.3187823 q 0.1515842,0 0.1515842,-0.155374 0,-0.155373 -0.1477946,-0.155373 H 0.9095051 L 2.0084904,15.115264 3.103686,16.737215 H 2.5125077 q -0.087161,0 -0.1364257,0.04926 -0.049265,0.04548 -0.049265,0.106109 0,0.06442 0.049265,0.109899 0.049265,0.04547 0.1402154,0.04547 H 3.774446 q 0.1553738,0 0.1553738,-0.159163 0,-0.151584 -0.1477946,-0.151584 H 3.5053841 L 2.213129,14.815885 3.4864361,12.936241 h 0.2766411 q 0.1477946,0 0.1477946,-0.159163 0,-0.166743 -0.1515842,-0.166743 z"
     style="font-family:'Cutive Mono';-inkscape-font-specification:'Cutive Mono';fill:#dddddd"
     id="path112" />
  <path
     d="m 10.06726,17.047962 q 0.04169,0 0.06821,-0.0379 0.02653,-0.0379 0.02653,-0.09095 0,-0.04926 -0.02653,-0.08337 -0.02274,-0.03411 -0.06442,-0.03411 H 9.4722921 v -1.159619 h 0.7579209 q 0.06821,0 0.10232,-0.04169 0.0379,-0.04547 0.0379,-0.106109 0,-0.06442 -0.03411,-0.106109 -0.03411,-0.04168 -0.09853,-0.04168 H 9.4722931 v -2.561773 q 0,-0.109898 -0.04168,-0.155374 -0.04169,-0.04927 -0.106109,-0.04927 -0.04548,0 -0.08716,0.01516 -0.0379,0.01516 -0.04927,0.03032 l -1.936488,2.743673 q -0.0379,0.04926 -0.0379,0.106109 0,0.06442 0.04547,0.117478 0.04548,0.04927 0.09853,0.04927 h 1.750797 v 1.159619 h -1.091406 q -0.04168,0 -0.06821,0.03411 -0.02274,0.03411 -0.02274,0.08337 0,0.05305 0.02653,0.09095 0.02653,0.0379 0.06821,0.0379 z M 9.1084901,15.34643 h -1.458997 l 1.458997,-2.160075 z"
     style="font-family:'Cutive Mono';-inkscape-font-specification:'Cutive Mono';fill:#dddddd"
     id="path114" />
  <path
     d="m 15.526362,14.740093 q 0.435804,0 0.693497,0.246324 0.261483,0.246325 0.261483,0.67455 0,0.322116 -0.144005,0.579809 -0.140216,0.253904 -0.405488,0.401698 -0.261483,0.144005 -0.613916,0.144005 -0.246324,0 -0.37896,-0.04169 -0.132636,-0.04548 -0.257693,-0.128847 -0.08337,-0.05305 -0.144005,-0.07579 -0.06063,-0.02653 -0.151584,-0.02653 -0.06063,0 -0.10232,0.04547 -0.04169,0.04169 -0.04169,0.07958 0,0.113688 0.155373,0.223586 0.159164,0.109899 0.405488,0.181901 0.250114,0.06821 0.504017,0.06821 0.428226,0 0.776869,-0.181901 0.352434,-0.18569 0.557072,-0.511596 0.204639,-0.325906 0.204639,-0.735184 0,-0.352433 -0.144005,-0.621495 -0.144005,-0.269062 -0.420646,-0.420646 -0.276641,-0.151584 -0.666971,-0.151584 0.234956,-0.113688 0.435805,-0.238745 0.200849,-0.128847 0.371381,-0.344854 0.170532,-0.216007 0.170532,-0.492649 0,-0.269061 -0.132636,-0.462331 -0.132636,-0.19706 -0.363802,-0.299379 -0.231166,-0.102319 -0.519176,-0.102319 -0.212217,0 -0.492648,0.072 -0.276641,0.06821 -0.47749,0.19706 -0.19706,0.128846 -0.19706,0.299378 0,0.04927 0.04169,0.08716 0.04169,0.0379 0.113688,0.0379 0.106109,0 0.159163,-0.03032 0.05684,-0.03411 0.121268,-0.102319 0.06821,-0.07579 0.136425,-0.121267 0.072,-0.04926 0.212218,-0.08337 0.140216,-0.03411 0.375171,-0.03411 0.325906,0 0.492649,0.159163 0.166742,0.155374 0.166742,0.38275 0,0.19327 -0.106109,0.341065 -0.102319,0.147794 -0.269062,0.265272 -0.166742,0.117478 -0.4737,0.299379 l -0.253904,0.155374 q -0.06063,0.03411 -0.09095,0.07579 -0.02653,0.04168 -0.02653,0.07958 0,0.06821 0.0379,0.106109 0.0379,0.03411 0.106109,0.03411 0.03411,0 0.117477,-0.01137 0.208429,-0.01895 0.257694,-0.01895 z"
     style="fill:#aaaaaa"
     id="path116" />
  <path
     d="m 21.216628,14.179232 q 0.06821,0 0.117477,-0.0379 0.04927,-0.04169 0.05306,-0.113688 l 0.06063,-1.091406 h 1.947856 l -2.398819,3.751709 q -0.0076,0.01516 -0.05684,0.09474 -0.04926,0.07958 -0.04926,0.147794 0,0.117478 0.197059,0.117478 h 2.736095 q 0.08716,0 0.140215,-0.05305 0.05684,-0.05305 0.05305,-0.147795 l -0.0379,-1.258149 q 0,-0.09474 -0.04547,-0.140215 -0.04547,-0.04926 -0.109898,-0.04926 -0.072,0 -0.132637,0.05306 -0.05684,0.05305 -0.06063,0.140215 v 1.129302 h -2.171444 l 2.357134,-3.770656 q 0.0379,-0.06063 0.0379,-0.132636 0,-0.08337 -0.04926,-0.144005 -0.04927,-0.06442 -0.136426,-0.06442 h -2.387451 q -0.132636,0 -0.19327,0.06063 -0.06063,0.05684 -0.06442,0.147795 v 1.174777 q 0,0.08716 0.05684,0.136426 0.06063,0.04926 0.136426,0.04926 z"
     style="font-family:'Cutive Mono';-inkscape-font-specification:'Cutive Mono';fill:#dddddd"
     id="path118" />
  <path
     d="m 2.6640919,18.885186 q -0.1515842,0 -0.1515842,0.166743 0,0.159163 0.1477946,0.159163 H 3.0430524 L 1.9933319,20.76104 0.9511907,19.211092 h 0.5608615 q 0.1477946,0 0.1477946,-0.159163 0,-0.166743 -0.1515842,-0.166743 H 0.2349555 q -0.1515842,0 -0.1515842,0.166743 0,0.159163 0.1477946,0.159163 H 0.5419135 L 1.7886933,21.064209 0.469911,23.012065 H 0.1477946 Q 0,23.012065 0,23.167439 q 0,0.155374 0.1515842,0.155374 h 1.3187823 q 0.1515842,0 0.1515842,-0.155374 0,-0.155374 -0.1477946,-0.155374 h -0.564651 l 1.0989853,-1.62195 1.0951956,1.62195 H 2.5125077 q -0.087161,0 -0.1364257,0.04927 -0.049265,0.04547 -0.049265,0.106109 0,0.06442 0.049265,0.109899 0.049265,0.04547 0.1402154,0.04547 H 3.774446 q 0.1553738,0 0.1553738,-0.159163 0,-0.151585 -0.1477946,-0.151585 H 3.5053841 L 2.213129,21.090736 3.4864361,19.211092 h 0.2766411 q 0.1477946,0 0.1477946,-0.159163 0,-0.166743 -0.1515842,-0.166743 z"
     style="font-family:'Cutive Mono';-inkscape-font-specification:'Cutive Mono';fill:#dddddd"
     id="path120" />
  <path
     d="m 10.06726,23.322813 q 0.04169,0 0.06821,-0.0379 0.02653,-0.0379 0.02653,-0.09095 0,-0.04926 -0.02653,-0.08337 -0.02274,-0.03411 -0.06442,-0.03411 H 9.4722921 v -1.159619 h 0.7579209 q 0.06821,0 0.10232,-0.04169 0.0379,-0.04547 0.0379,-0.106109 0,-0.06442 -0.03411,-0.106109 -0.03411,-0.04169 -0.09853,-0.04169 H 9.4722931 v -2.561758 q 0,-0.109899 -0.04168,-0.155374 -0.04169,-0.04926 -0.106109,-0.04926 -0.04548,0 -0.08716,0.01516 -0.0379,0.01516 -0.04927,0.03032 l -1.936488,2.743673 q -0.0379,0.04927 -0.0379,0.106109 0,0.06442 0.04547,0.117478 0.04548,0.04926 0.09853,0.04926 h 1.750797 v 1.159619 h -1.091406 q -0.04168,0 -0.06821,0.03411 -0.02274,0.03411 -0.02274,0.08337 0,0.05306 0.02653,0.09095 0.02653,0.0379 0.06821,0.0379 z M 9.1084901,21.621281 h -1.458997 l 1.458997,-2.160075 z"
     style="font-family:'Cutive Mono';-inkscape-font-specification:'Cutive Mono';fill:#dddddd"
     id="path122" />
  <path
     d="m 15.526362,21.014944 q 0.435804,0 0.693497,0.246324 0.261483,0.246324 0.261483,0.67455 0,0.322116 -0.144005,0.579809 -0.140216,0.253904 -0.405488,0.401698 -0.261483,0.144005 -0.613916,0.144005 -0.246324,0 -0.37896,-0.04169 -0.132636,-0.04548 -0.257693,-0.128847 -0.08337,-0.05305 -0.144005,-0.07579 -0.06063,-0.02653 -0.151584,-0.02653 -0.06063,0 -0.10232,0.04548 -0.04169,0.04169 -0.04169,0.07958 0,0.113688 0.155373,0.223586 0.159164,0.109899 0.405488,0.181901 0.250114,0.06821 0.504017,0.06821 0.428226,0 0.776869,-0.181901 0.352434,-0.18569 0.557072,-0.511596 0.204639,-0.325906 0.204639,-0.735184 0,-0.352433 -0.144005,-0.621495 -0.144005,-0.269062 -0.420646,-0.420646 -0.276641,-0.151584 -0.666971,-0.151584 0.234956,-0.113688 0.435805,-0.238745 0.200849,-0.128847 0.371381,-0.344854 0.170532,-0.216008 0.170532,-0.492649 0,-0.269062 -0.132636,-0.462331 -0.132636,-0.19706 -0.363802,-0.299379 -0.231166,-0.10232 -0.519176,-0.10232 -0.212217,0 -0.492648,0.072 -0.276641,0.06821 -0.47749,0.197059 -0.19706,0.128847 -0.19706,0.299379 0,0.04926 0.04169,0.08716 0.04169,0.0379 0.113688,0.0379 0.106109,0 0.159163,-0.03032 0.05684,-0.03411 0.121268,-0.102319 0.06821,-0.07579 0.136425,-0.121267 0.072,-0.04927 0.212218,-0.08337 0.140216,-0.03411 0.375171,-0.03411 0.325906,0 0.492649,0.159163 0.166742,0.155374 0.166742,0.38275 0,0.19327 -0.106109,0.341065 -0.102319,0.147794 -0.269062,0.265272 -0.166742,0.117478 -0.4737,0.299379 l -0.253904,0.155374 q -0.06063,0.03411 -0.09095,0.07579 -0.02653,0.04169 -0.02653,0.07958 0,0.06821 0.0379,0.106109 0.0379,0.03411 0.106109,0.03411 0.03411,0 0.117477,-0.01137 0.208429,-0.01895 0.257694,-0.01895 z"
     style="font-family:'Cutive Mono';-inkscape-font-specification:'Cutive Mono';fill:#dddddd"
     id="path124" />
  <path
     d="m 21.216628,20.454082 q 0.06821,0 0.117477,-0.0379 0.04927,-0.04169 0.05306,-0.113688 l 0.06063,-1.091406 h 1.947856 l -2.398819,3.751708 q -0.0076,0.01516 -0.05684,0.09474 -0.04926,0.07958 -0.04926,0.147794 0,0.117478 0.197059,0.117478 h 2.736095 q 0.08716,0 0.140215,-0.05306 0.05684,-0.05305 0.05305,-0.147794 l -0.0379,-1.258149 q 0,-0.09474 -0.04547,-0.140215 -0.04547,-0.04927 -0.109898,-0.04927 -0.072,0 -0.132637,0.05305 -0.05684,0.05306 -0.06063,0.140216 v 1.129302 h -2.171444 l 2.357134,-3.770656 q 0.0379,-0.06063 0.0379,-0.132637 0,-0.08337 -0.04926,-0.144005 -0.04927,-0.06442 -0.136426,-0.06442 h -2.387451 q -0.132636,0 -0.19327,0.06063 -0.06063,0.05684 -0.06442,0.147794 v 1.174778 q 0,0.08716 0.05684,0.136426 0.06063,0.04926 0.136426,0.04926 z"
     style="fill:#aaaaaa"
     id="path126" />
</svg>
